<svg width="1500" height="72" viewBox="0 0 1500 72" fill="none" xmlns="http://www.w3.org/2000/svg">
<g clip-path="url(#clip0_1369_4097)">
<rect width="1500" height="72" fill="#3C087E"/>
<g transform="translate(0, 0) scale(0.5)">
<path d="M74.8058 95.0127C78.88 95.0127 82.1494 92.9849 84.6141 88.321L90.0966 77.9794V86.7495C90.0966 91.9203 93.4164 95.0127 98.5468 95.0127C102.571 95.0127 105.538 93.2384 108.405 88.321L121.03 66.8267C123.797 62.1121 121.835 58.5635 115.749 58.5635C112.48 58.5635 110.367 59.6281 108.456 63.2274L99.754 79.703V65.0524C99.754 60.6926 97.6918 58.5635 93.869 58.5635C90.8511 58.5635 88.4368 59.8815 86.5757 63.5315L78.377 79.703V65.2044C78.377 60.5406 76.4657 58.5635 71.8382 58.5635H62.382C58.8108 58.5635 57 60.2364 57 63.3287C57 66.4211 58.9114 68.1954 62.382 68.1954H66.255V86.6988C66.255 91.9203 69.7256 95.0127 74.8058 95.0127Z" fill="white"/>
<path fill-rule="evenodd" clip-rule="evenodd" d="M139.493 58.5635C129.181 58.5635 121.285 66.3197 121.285 76.8134C121.285 87.3072 129.232 95.0127 139.493 95.0127C149.754 95.0127 157.6 87.2565 157.651 76.8134C157.651 66.3197 149.754 58.5635 139.493 58.5635ZM139.493 83.8093C135.62 83.8093 132.954 80.869 132.954 76.8134C132.954 72.7579 135.62 69.7669 139.493 69.7669C143.366 69.7669 146.032 72.7579 146.032 76.8134C146.032 80.869 143.416 83.8093 139.493 83.8093Z" fill="white"/>
<path fill-rule="evenodd" clip-rule="evenodd" d="M160.212 76.8134C160.212 66.3197 168.109 58.5635 178.37 58.5635C188.631 58.5635 196.528 66.3704 196.528 76.8134C196.528 87.2565 188.631 95.0127 178.37 95.0127C168.109 95.0127 160.212 87.3072 160.212 76.8134ZM171.882 76.8134C171.882 80.869 174.447 83.8093 178.37 83.8093C182.243 83.8093 184.909 80.869 184.909 76.8134C184.909 72.7579 182.243 69.7669 178.37 69.7669C174.497 69.7669 171.882 72.7579 171.882 76.8134Z" fill="white"/>
<path d="M264.171 90.444C256.771 90.444 251.554 85.042 251.554 77.679C251.554 70.316 256.771 64.914 264.171 64.914C271.534 64.914 276.788 70.316 276.788 77.679C276.788 85.042 271.534 90.444 264.171 90.444ZM264.171 86.596C269.129 86.596 272.348 82.748 272.348 77.679C272.348 72.573 269.129 68.762 264.171 68.762C259.176 68.762 255.994 72.573 255.994 77.679C255.994 82.748 259.176 86.596 264.171 86.596ZM285.285 90H281.4V75.496H278.44V72.129H281.4V71.13C281.4 67.245 283.657 64.951 287.024 64.951C288.652 64.951 290.243 65.358 291.316 66.505L289.799 68.91C289.281 68.429 288.615 68.133 287.764 68.133C286.21 68.133 285.285 69.132 285.285 71.13V72.129H288.911V75.496H285.285V90ZM296.718 90H292.833V75.496H289.873V72.129H292.833V71.13C292.833 67.134 295.201 64.951 298.457 64.951C299.715 64.951 300.788 65.173 301.602 65.617L300.751 68.54C300.344 68.281 299.826 68.133 299.197 68.133C297.643 68.133 296.718 69.132 296.718 71.13V72.129H300.344V75.496H296.718V90ZM305.228 69.946C303.896 69.946 302.823 68.873 302.823 67.541C302.823 66.209 303.896 65.136 305.228 65.136C306.56 65.136 307.633 66.209 307.633 67.541C307.633 68.873 306.56 69.946 305.228 69.946ZM307.152 90H303.267V72.129H307.152V90ZM319.969 90.444C314.567 90.444 310.756 86.448 310.756 81.046C310.756 75.644 314.567 71.685 319.969 71.685C323.484 71.685 325.556 73.165 326.814 74.867L324.261 77.198C323.262 75.792 321.893 75.126 320.154 75.126C316.935 75.126 314.752 77.568 314.752 81.046C314.752 84.524 316.935 87.003 320.154 87.003C321.893 87.003 323.262 86.263 324.261 84.857L326.814 87.262C325.556 88.927 323.484 90.444 319.969 90.444ZM331.847 69.946C330.515 69.946 329.442 68.873 329.442 67.541C329.442 66.209 330.515 65.136 331.847 65.136C333.179 65.136 334.252 66.209 334.252 67.541C334.252 68.873 333.179 69.946 331.847 69.946ZM333.771 90H329.886V72.129H333.771V90ZM354.906 90H351.021V87.558C349.652 89.334 347.617 90.444 345.286 90.444C340.735 90.444 337.368 86.966 337.368 81.046C337.368 75.274 340.698 71.685 345.286 71.685C347.543 71.685 349.578 72.684 351.021 74.608V72.129H354.906V90ZM346.433 87.003C348.246 87.003 350.17 85.93 351.021 84.598V77.531C350.17 76.199 348.246 75.126 346.433 75.126C343.325 75.126 341.364 77.605 341.364 81.046C341.364 84.524 343.325 87.003 346.433 87.003ZM363.455 90H359.57V65.321H363.455V90ZM385.582 90.444C380.18 90.444 376.221 86.707 376.221 81.046C376.221 75.866 379.995 71.685 385.286 71.685C390.651 71.685 394.055 75.755 394.055 81.379V82.341H380.291C380.587 85.005 382.585 87.262 385.952 87.262C387.728 87.262 389.763 86.559 391.058 85.264L392.834 87.817C391.021 89.519 388.394 90.444 385.582 90.444ZM390.318 79.566C390.207 77.457 388.764 74.867 385.249 74.867C381.956 74.867 380.402 77.42 380.254 79.566H390.318ZM413.208 90H408.842L404.217 83.414L399.555 90H395.189L401.775 80.824L395.596 72.129H399.962L404.18 78.16L408.435 72.129H412.801L406.622 80.824L413.208 90ZM420.943 90.444C417.909 90.444 416.355 88.816 416.355 85.819V75.496H413.395V72.129H416.355V67.245H420.24V72.129H423.866V75.496H420.24V84.857C420.24 86.078 420.832 87.003 421.942 87.003C422.682 87.003 423.348 86.67 423.644 86.337L424.569 89.297C423.866 89.926 422.719 90.444 420.943 90.444ZM435.275 90.444C429.873 90.444 425.914 86.707 425.914 81.046C425.914 75.866 429.688 71.685 434.979 71.685C440.344 71.685 443.748 75.755 443.748 81.379V82.341H429.984C430.28 85.005 432.278 87.262 435.645 87.262C437.421 87.262 439.456 86.559 440.751 85.264L442.527 87.817C440.714 89.519 438.087 90.444 435.275 90.444ZM440.011 79.566C439.9 77.457 438.457 74.867 434.942 74.867C431.649 74.867 430.095 77.42 429.947 79.566H440.011ZM463.197 90H459.312V78.826C459.312 76.014 457.869 75.126 455.686 75.126C453.725 75.126 452.023 76.31 451.098 77.494V90H447.213V72.129H451.098V74.534C452.282 73.128 454.613 71.685 457.425 71.685C461.273 71.685 463.197 73.757 463.197 77.42V90ZM474.014 90.444C470.943 90.444 468.205 89.445 466.355 87.632L468.131 84.857C469.389 86.152 471.868 87.336 474.162 87.336C476.493 87.336 477.714 86.374 477.714 84.968C477.714 81.453 466.91 83.969 466.91 77.087C466.91 74.164 469.426 71.685 473.94 71.685C476.974 71.685 479.268 72.758 480.859 74.164L479.231 76.902C478.158 75.718 476.197 74.756 473.94 74.756C471.905 74.756 470.647 75.718 470.647 76.976C470.647 80.121 481.451 77.753 481.451 84.857C481.451 88.039 478.824 90.444 474.014 90.444ZM486.915 69.946C485.583 69.946 484.51 68.873 484.51 67.541C484.51 66.209 485.583 65.136 486.915 65.136C488.247 65.136 489.32 66.209 489.32 67.541C489.32 68.873 488.247 69.946 486.915 69.946ZM488.839 90H484.954V72.129H488.839V90ZM501.612 90.444C495.914 90.444 492.436 86.152 492.436 81.046C492.436 75.903 495.914 71.685 501.612 71.685C507.31 71.685 510.788 75.903 510.788 81.046C510.788 86.152 507.31 90.444 501.612 90.444ZM501.612 87.003C504.942 87.003 506.755 84.228 506.755 81.046C506.755 77.901 504.942 75.126 501.612 75.126C498.319 75.126 496.469 77.901 496.469 81.046C496.469 84.228 498.319 87.003 501.612 87.003ZM530.369 90H526.484V78.826C526.484 76.014 525.041 75.126 522.858 75.126C520.897 75.126 519.195 76.31 518.27 77.494V90H514.385V72.129H518.27V74.534C519.454 73.128 521.785 71.685 524.597 71.685C528.445 71.685 530.369 73.757 530.369 77.42V90Z" fill="white"/>
<path d="M224 106L224 48" stroke="#873EFF" stroke-width="1.5"/>
</g>
<path fill-rule="evenodd" clip-rule="evenodd" d="M1151.44 895.486C1294.29 977.991 1511.6 869.128 1636.81 652.334C1762.03 435.54 1747.73 192.91 1604.88 110.405C1514.03 57.9323 1393.06 82.8648 1284.82 163.738C1283.98 83.0137 1254.29 15.4296 1196.96 -17.6809C1115.55 -64.7033 1001.76 -28.6991 910.27 62.8033C921.885 -4.88985 902.308 -66.7749 854.629 -93.4578C787.354 -131.107 689.608 -84.4165 636.306 10.8281C583.004 106.073 594.331 213.804 661.605 251.453C701.309 273.673 751.628 266.516 797.159 237.338C741.61 380.001 762.387 522.128 854.469 575.312C907.855 606.145 975.159 601.28 1040.97 568.476C1017.47 712.181 1055.41 840.019 1151.44 895.486Z" fill="#720EEC"/>
</g>
<defs>
<clipPath id="clip0_1369_4097">
<rect width="1500" height="72" fill="white"/>
</clipPath>
</defs>
</svg>
